<?xml version="1.0" encoding="iso-8859-1"?>
<!-- Uploaded to: SVG Repo, www.svgrepo.com, Generator: SVG Repo Mixer Tools -->
<svg fill="#000000" height="800px" width="800px" version="1.1" id="Capa_1" xmlns="http://www.w3.org/2000/svg" xmlns:xlink="http://www.w3.org/1999/xlink" 
	 viewBox="0 0 219.948 219.948" xml:space="preserve">
<path color-rendering="auto" image-rendering="auto" shape-rendering="auto" color-interpolation="sRGB" d="M109.937,0
	c-8.736,0-17.473,3.237-24.224,9.711c-11.063,10.608-13.66,26.904-7.436,40.166l-48.248,0.006c-0.056-0.003-0.112-0.005-0.168-0.006
	c-2.759,0.042-4.963,2.311-4.924,5.07v160c0,2.761,2.239,5,5,5h160c2.761,0.039,5.032-2.168,5.07-4.93
	c0-0.024,0.001-0.048,0.001-0.073v-0.072l-0.01-57.422h-0.02c0.01-2.762-2.221-5.009-4.982-5.019
	c-1.234-0.005-2.426,0.447-3.347,1.269c-10.09,8.894-25.264,8.258-34.574-1.451c-9.309-9.709-9.309-24.897,0-34.606
	c9.31-9.709,24.483-10.347,34.574-1.453c2.06,1.84,5.221,1.662,7.061-0.398c0.823-0.921,1.276-2.114,1.271-3.349h0.03V54.948
	c0.04-2.818-2.255-5.111-5.072-5.07h-48.342c6.225-13.262,3.628-29.558-7.435-40.166C127.411,3.238,118.675,0,109.939,0L109.937,0z
	 M109.937,9.947c6.225,0,12.449,2.328,17.303,6.982c9.709,9.309,10.345,24.483,1.451,34.574c-1.859,2.042-1.712,5.205,0.33,7.064
	c0.933,0.85,2.154,1.315,3.416,1.303v0.006h52.573v43.404c-13.26-6.216-29.55-3.618-40.155,7.442
	c-6.473,6.751-9.709,15.488-9.709,24.225c0,8.736,3.236,17.473,9.709,24.225c10.603,11.057,26.888,13.655,40.147,7.443l0.01,43.332
	H34.939V59.883l52.493-0.006V59.83c2.762,0.01,5.008-2.221,5.018-4.983c0.004-1.232-0.447-2.423-1.266-3.343
	C82.29,41.413,82.928,26.24,92.637,16.93c4.854-4.655,11.078-6.982,17.302-6.982L109.937,9.947z"/>
</svg>